<svg xmlns="http://www.w3.org/2000/svg"  viewBox="0 0 64 64" width="64px" height="64px" baseProfile="basic"><path fill="#fd3c4f" d="M23,29.5c0,3.038-2.462,7.5-5.5,7.5S12,32.538,12,29.5s2.462-5.5,5.5-5.5S23,26.462,23,29.5z"/><path fill="#fd3c4f" d="M41,29.5c0,3.038,2.462,7.5,5.5,7.5s5.5-4.462,5.5-7.5S49.538,24,46.5,24S41,26.462,41,29.5z"/><path fill="#fd3c4f" d="M31.984,4c-9.462,0-17.111,7.734-16.981,17.195c0.073,5.324,1.24,18.215,1.593,19.805	c1.44,6.481,5.914,8.961,8.64,12.082c1.07,1.225,2.62,1.918,4.247,1.918H32h2.518c1.627,0,3.177-0.693,4.247-1.918	C41.49,49.961,45.56,47.481,47,41c0.353-1.587,1.882-14.463,1.965-19.775C49.112,11.752,41.457,4,31.984,4L31.984,4z"/><path d="M47.681,36.071c-2.55-0.35-4.993,1.284-5.562,3.844c-0.788,3.547-2.565,5.288-4.814,7.494 c-0.764,0.748-1.554,1.522-2.306,2.384c-1.294,1.482-1.539,3.506-0.832,5.207h0.351c1.627,0,3.177-0.693,4.247-1.918 C41.49,49.961,45.56,47.481,47,41C47.122,40.45,47.385,38.546,47.681,36.071z" opacity=".15"/><path fill="#fff" d="M31.983,9c2.51,0,4.569-1.856,4.926-4.267C35.35,4.261,33.698,4,31.984,4h0 c-9.462,0-17.111,7.734-16.981,17.195c0.018,1.3,0.101,3.054,0.222,4.982c2.688-0.12,4.814-2.343,4.778-5.051 c-0.045-3.221,1.179-6.259,3.443-8.555C25.717,10.269,28.749,9,31.983,9z" opacity=".3"/><path fill="none" stroke="#fff" stroke-linecap="round" stroke-linejoin="round" stroke-miterlimit="10" stroke-width="3" d="M25.941,9.912C25.997,9.878,28.233,8.5,32,8.5"/><ellipse cx="32" cy="61" opacity=".3" rx="13.5" ry="3"/><path fill="#9c34c2" d="M43.837,18.581c-0.428-1.388-2.001-2.059-3.299-1.408c-1.699,0.852-3.78,1.996-4.532,2.827	c-1.752,1.935-3.308,7.408-3,10c0.252,2.122,2.844,6.176,4.801,8.981c1.008,1.444,3.177,1.317,4.012-0.234	c1.656-3.079,3.891-7.548,4.187-9.747C46.279,26.965,44.816,21.754,43.837,18.581z"/><path fill="#fff" d="M36.267,28.319l4.328-2.258c0.193-0.101,0.432-0.064,0.585,0.095	c0.521,0.539,0.808,1.232,0.808,1.951c0,1.597-1.368,2.895-3.049,2.895c-1.344,0-2.545-0.862-2.919-2.096	C35.952,28.677,36.055,28.43,36.267,28.319z"/><path fill="#9c34c2" d="M20.169,18.581c0.428-1.388,2.001-2.059,3.299-1.408C25.167,18.025,27.248,19.169,28,20	c1.752,1.935,3.308,7.408,3,10c-0.252,2.122-2.844,6.176-4.801,8.981c-1.008,1.444-3.177,1.317-4.012-0.234	C20.531,35.668,18.296,31.199,18,29C17.726,26.965,19.189,21.754,20.169,18.581z"/><path fill="#fff" d="M27.722,28.319l-4.328-2.258c-0.193-0.101-0.432-0.064-0.585,0.095	C22.287,26.696,22,27.389,22,28.108c0,1.597,1.368,2.895,3.049,2.895c1.344,0,2.545-0.862,2.919-2.096	C28.037,28.677,27.934,28.43,27.722,28.319z"/></svg>