<svg xmlns="http://www.w3.org/2000/svg"  viewBox="0 0 64 64" width="64px" height="64px" baseProfile="basic"><path fill="#9c34c2" d="M47.031,6.407L40,13c0,0-3-2-8-2s-8,2-8,2l-7.031-6.593c-0.662-0.809-1.973-0.346-1.972,0.699	c0.007,7.985-0.293,26.885,0.598,30.894c1.44,6.481,6.914,12.961,9.64,16.082c1.07,1.225,2.62,1.918,4.247,1.918H32h2.518	c1.627,0,3.177-0.693,4.247-1.918c2.725-3.12,8.149-9.601,9.589-16.082c0.891-4.009,0.641-22.908,0.648-30.894	C49.003,6.061,47.692,5.598,47.031,6.407z"/><path fill="none" stroke="#fff" stroke-linecap="round" stroke-linejoin="round" stroke-miterlimit="10" stroke-width="3" d="M25.941,15.912C25.997,15.878,28.233,14.5,32,14.5"/><path fill="#fff" d="M32,16c2.524,0,4.59-1.876,4.93-4.307C35.64,11.315,33.98,11,32,11c-5,0-8,2-8,2 l-7.031-6.593c-0.662-0.809-1.973-0.346-1.972,0.699c0.004,4.918-0.359,13.972-0.119,21.141c2.746-0.073,5.227-2.38,5.171-5.131 c-0.036-1.77-0.024-3.551-0.045-5.324c-0.008-0.632,0.742-0.999,1.281-0.668c1.213,0.744,3.197,1.433,5.408,0.087 C26.774,17.163,28.72,16,32,16z" opacity=".3"/><path d="M38.765,54.082c2.725-3.12,8.149-9.601,9.589-16.082c0.406-1.829,0.649-6.76,0.793-12.337 c-2.736-0.09-5.044,2.033-5.162,4.776c-0.208,4.806-0.444,6.171-0.512,6.476c-1.232,5.544-6.443,11.553-8.475,13.878 c-1.294,1.482-1.539,3.506-0.831,5.207h0.351C36.145,56,37.695,55.307,38.765,54.082z" opacity=".15"/><path fill="#ffa1ac" d="M28.061,49.776C26.157,47.233,21.946,41.258,21,37l9.413,2.815c1.039,0.283,2.135,0.283,3.175,0	L43,37c-0.946,4.257-5.157,10.232-7.061,12.776C35.361,50.549,34.456,51,33.491,51h-2.982C29.544,51,28.639,50.549,28.061,49.776z"/><ellipse cx="32" cy="61" opacity=".3" rx="13.5" ry="3"/><path fill="#fff" d="M36.267,28.319l4.328-2.258c0.193-0.101,0.432-0.064,0.585,0.095	c0.521,0.539,0.808,1.232,0.808,1.951c0,1.597-1.368,2.895-3.049,2.895c-1.344,0-2.545-0.862-2.919-2.096	C35.952,28.677,36.055,28.43,36.267,28.319z"/><path fill="#fff" d="M27.722,28.319l-4.328-2.258c-0.193-0.101-0.432-0.064-0.585,0.095	C22.287,26.696,22,27.389,22,28.108c0,1.597,1.368,2.895,3.049,2.895c1.344,0,2.545-0.862,2.919-2.096	C28.037,28.677,27.934,28.43,27.722,28.319z"/></svg>