<svg xmlns="http://www.w3.org/2000/svg"  viewBox="0 0 64 64" width="64px" height="64px" baseProfile="basic"><ellipse cx="32" cy="61" opacity=".3" rx="13.5" ry="3"/><circle cx="46.5" cy="33.5" r="4.5" fill="#a0effe"/><circle cx="17.477" cy="33.477" r="4.477" fill="#a0effe"/><path fill="#98c900" d="M19.503,31.136c-0.4-0.497-0.781,0.545-1.144,0c-3.746-5.629-5.565-14.276-6.335-19.12	c-0.211-1.329,1.005-2.366,2.322-2.084C18.951,10.919,23.483,5,32.012,5c8.609,0,12.692,6.432,17.579,5.094	c1.327-0.363,2.602,0.719,2.384,2.077c-0.784,4.872-2.603,13.396-6.31,18.965c-0.363,0.545-0.744-0.498-1.144,0H19.503z"/><path fill="none" stroke="#fff" stroke-linecap="round" stroke-linejoin="round" stroke-miterlimit="10" stroke-width="3" d="M22.728,11.234C25.462,9.89,28.29,8.5,32.012,8.5"/><path fill="#a0effe" d="M38.545,18.992c-1.977,0-3.526,1.072-4.62,2.225c-1.053,1.109-2.799,1.109-3.852,0	c-1.094-1.152-2.643-2.225-4.62-2.225C18.364,18.992,18,31,18,31v10.625c0,1.528,0.57,3.002,1.598,4.133l6.574,7.231	C27.336,54.27,28.987,55,30.718,55h2.737c1.63,0,3.192-0.647,4.345-1.8L44.2,46.8c1.152-1.152,1.8-2.715,1.8-4.345V31	C46,31,45.636,18.992,38.545,18.992z"/><path fill="#fff" d="M32.012,5c-8.539,0-13.072,5.933-17.682,4.929c-1.314-0.286-2.516,0.767-2.305,2.094	c0.403,2.537,1.098,6.114,2.202,9.755c2.744-0.719,4.395-3.595,3.488-6.384c-0.102-0.312,0.049-0.606,0.368-0.683	c1.909-0.46,3.67-1.325,5.308-2.13c2.699-1.327,5.249-2.58,8.622-2.58c2.505,0,4.562-1.849,4.925-4.253	C35.463,5.301,33.845,5,32.012,5z" opacity=".3"/><path d="M41.04,41.823c-0.093,0.737-0.372,1.439-0.898,1.964l-5.163,5.163	c-0.571,0.571-1.301,0.99-2.103,1.083c-2.344,0.272-4.176,2.175-4.378,4.543C29.199,54.848,29.949,55,30.718,55h2.737	c1.63,0,3.192-0.647,4.345-1.8L44.2,46.8c1.152-1.152,1.8-2.715,1.8-4.345v-5C43.453,37.455,41.35,39.36,41.04,41.823z" opacity=".15"/><path fill="#fd3c4f" d="M32.765,39.27l-0.764,0.386l-0.774-0.391c-0.625-0.316-1.35-0.333-2.001-0.078	c-2.415,0.945-4.912,0.593-6.202-0.088c-0.553-0.292-1.174,0.223-0.991,0.826c0.596,1.969,1.978,5.139,4.276,7.611	c3.056,3.287,8.332,3.286,11.387-0.002c2.297-2.473,3.676-5.644,4.272-7.612c0.183-0.603-0.438-1.119-0.99-0.826	c-1.298,0.689-3.801,1.054-6.196,0.104C34.126,38.938,33.395,38.952,32.765,39.27z"/><path fill="#fff" d="M38,42H26c0,0,1.998,4.997,6,5l0,0c0.001,0,0.002,0,0.003,0l0,0C36.005,46.997,38,42,38,42z"/><path fill="#9c34c2" d="M23.098,28.048c-0.632-0.228-1.237,0.4-1.07,1.098C22.53,31.251,24,33,25.734,33	c1.289,0,2.429-0.576,3.137-1.708c0.299-0.478,0.054-1.141-0.452-1.324L23.098,28.048z"/><path fill="#9c34c2" d="M35.581,29.969c-0.505,0.182-0.75,0.846-0.452,1.324C35.837,32.424,36.977,33,38.266,33	c1.734,0,3.203-1.749,3.706-3.854c0.167-0.698-0.438-1.327-1.07-1.098L35.581,29.969z"/></svg>