<svg xmlns="http://www.w3.org/2000/svg"  viewBox="0 0 64 64" width="64px" height="64px"><ellipse cx="32" cy="61" opacity=".3" rx="19" ry="3"/><path fill="#ffce29" d="M51.092,12.907C45.992,7.809,39.212,5,32,5s-13.992,2.809-19.092,7.908S5,24.788,5,32h54	C59,24.788,56.191,18.008,51.092,12.907z"/><circle cx="32" cy="32" r="21" fill="#ffce29"/><circle cx="9.5" cy="32.5" r="4.5" fill="#ffce29"/><circle cx="54.5" cy="32.5" r="4.5" fill="#ffce29"/><path fill="#fff" d="M32,10c2.605,0,4.72-1.999,4.954-4.543C35.336,5.159,33.681,5,32,5 c-7.212,0-13.992,2.809-19.092,7.908c-4.027,4.027-6.618,9.105-7.533,14.613c0.42,0.11,0.842,0.183,1.261,0.183 c2.04,0,3.955-1.257,4.696-3.283c1.096-2.997,2.816-5.682,5.112-7.978C20.599,12.288,26.124,10,32,10z" opacity=".3"/><path d="M46.849,46.849c2.924-2.924,4.785-6.499,5.623-10.257c-2.356-0.826-5.006,0.198-6.133,2.495 c-0.767,1.563-1.785,2.986-3.025,4.227c-2.927,2.927-6.815,4.589-10.949,4.682c-2.554,0.058-4.594,2.027-4.839,4.507 C34.275,53.968,41.603,52.096,46.849,46.849z" opacity=".15"/><circle cx="21.5" cy="23.5" r="6.5" fill="#9c34c2"/><circle cx="23.5" cy="21.5" r="4.5" fill="#a0effe"/><circle cx="42.5" cy="23.5" r="6.5" fill="#9c34c2"/><circle cx="44.5" cy="21.5" r="4.5" fill="#a0effe"/><path fill="#fd3c4f" d="M32,42L32,42c-2.761,0-5-2.239-5-5v-4h10v4C37,39.761,34.761,42,32,42z"/><path fill="orange" d="M39.5,44c-2.481,0-4.5-2.019-4.5-4.5V37c0-1.654-1.346-3-3-3c-0.101,0-0.203,0.005-0.306,0.015	C30.184,34.163,29,35.571,29,37.223V39.5c0,2.481-2.019,4.5-4.5,4.5S20,41.981,20,39.5v-2.157c0-6.499,4.922-11.909,11.205-12.317	C31.472,25.009,31.737,25,32,25c6.617,0,12,5.383,12,12v2.5C44,41.981,41.981,44,39.5,44z"/><ellipse cx="32" cy="33" fill="#9c34c2" rx="5" ry="4"/><path fill="none" stroke="#fff" stroke-linecap="round" stroke-linejoin="round" stroke-miterlimit="10" stroke-width="3" d="M15.029,15.029c1.133-1.133,2.36-2.139,3.663-3.011s2.681-1.608,4.119-2.204"/></svg>